# xmcd
#
# Track frame offsets: 
#        187
#        17109
#        48464
#        69349
#
# Disc length: 1315 seconds
#
# Revision: 2
# Processed by: cddbd v1.5.2PL0 Copyright (c) Steve Scherf et al.
# Submitted via: ExactAudioCopy v0.95b4
#
DISCID=2d052104
DTITLE=Bobby Brown ft Whitney Houston - Something in Common
DYEAR=1993
DGENRE=R&B
TTITLE0=Something in Common (Radio Edit)
TTITLE1=Something in Common (Extended Vocal Version)
TTITLE2=Something in Common (Quiet Storm Version)
TTITLE3=Something in Common (Dub Version)
EXTD=
EXTT0=
EXTT1=
EXTT2=
EXTT3=
PLAYORDER=
